<svg xmlns="http://www.w3.org/2000/svg" width="598.931" height="88.405" viewBox="0 0 598.931 88.405">
  <g id="Grupo_4646" data-name="Grupo 4646" transform="translate(-802.724 -252.976)">
    <g id="Grupo_3181" data-name="Grupo 3181" transform="translate(38.508 31.225)">
      <path id="Trazado_7332" data-name="Trazado 7332" d="M811.351,225.569a6.555,6.555,0,0,0-11.91,0l-34.624,75.293a6.554,6.554,0,1,0,11.91,5.477L805.4,244l28.668,62.343a6.555,6.555,0,1,0,11.911-5.477Z" fill="#2622ac"/>
      <path id="Trazado_7333" data-name="Trazado 7333" d="M921.122,223.108a6.555,6.555,0,0,0-9.191,1.207l-23.709,30.877-23.708-30.877a6.555,6.555,0,1,0-10.4,7.984l25.843,33.655-25.843,33.655a6.555,6.555,0,1,0,10.4,7.984l23.708-30.877,23.709,30.877a6.554,6.554,0,1,0,10.4-7.984l-25.842-33.655L922.328,232.3A6.555,6.555,0,0,0,921.122,223.108Z" fill="#2622ac"/>
      <path id="Trazado_7334" data-name="Trazado 7334" d="M1074.04,221.753h-49.747a6.554,6.554,0,1,0,0,13.109h49.747a6.554,6.554,0,1,0,0-13.109Z" fill="#2622ac"/>
      <path id="Trazado_7335" data-name="Trazado 7335" d="M1074.04,297.046h-49.747a6.555,6.555,0,1,0,0,13.109h49.747a6.555,6.555,0,1,0,0-13.109Z" fill="#2622ac"/>
      <path id="Trazado_7336" data-name="Trazado 7336" d="M1067.316,272.508a6.555,6.555,0,0,0,0-13.109h-36.3a6.555,6.555,0,0,0,0,13.109Z" fill="#2622ac"/>
      <path id="Trazado_7337" data-name="Trazado 7337" d="M975.753,234.862a30.8,30.8,0,0,1,18.874,6.384,6.554,6.554,0,0,0,7.966-10.41,43.793,43.793,0,0,0-26.84-9.083,44.2,44.2,0,0,0,0,88.4,43.8,43.8,0,0,0,26.841-9.083,6.555,6.555,0,1,0-7.968-10.41,30.8,30.8,0,0,1-18.873,6.384,31.092,31.092,0,0,1,0-62.184Z" fill="#2622ac"/>
      <path id="Trazado_7338" data-name="Trazado 7338" d="M1148.593,268.475c-4.557-3.874-11.249-6.674-21.067-8.814-19.2-4.113-20.722-8.6-20.722-14.028V245.4c0-6.647,6.378-11.29,15.509-11.29,7.446,0,13.632,2.089,20.075,6.785a6.283,6.283,0,0,0,3.829,1.183,6.41,6.41,0,0,0,6.4-6.4,6.733,6.733,0,0,0-2.772-5.31l-.032-.024c-8.132-5.845-16.542-8.451-27.269-8.451-7.985,0-15.289,2.417-20.566,6.807a22.492,22.492,0,0,0-8.334,17.524v.234c0,15.981,11.622,21.782,29.084,25.578,16.719,3.526,19.778,7.372,19.778,13.676v.234c0,7.174-6.562,11.994-16.329,11.994-9.594,0-16.949-2.758-24.582-9.219a6.041,6.041,0,0,0-4.126-1.561,6.393,6.393,0,0,0-6.4,6.52,6.119,6.119,0,0,0,2.552,5.088,50.085,50.085,0,0,0,32.207,11.392c8.526,0,15.906-2.339,21.342-6.765A22.951,22.951,0,0,0,1155.784,285v-.234C1155.784,277.918,1153.432,272.588,1148.593,268.475Z" fill="#2622ac"/>
    </g>
    <g id="Google" transform="translate(1142.535 152.328)">
      <path id="Trazado_8923" data-name="Trazado 8923" d="M142.8,130.828c-6.523,0-13.046-.227-19.552.079-4.628.218-3.283-2.864-3.414-5.2-.14-2.471-.541-4.829,3.51-4.689q12.863.432,25.735-.017c3.528-.131,4.27,1.572,4.34,4.279.384,15.282-6.462,29.026-23.552,33.917a37.339,37.339,0,0,1-47-28.022c-4.532-20.844,12.042-42.134,33.559-43.208,9.344-.472,17.814,1.694,25.228,7.606,1.895,1.511,2.934,2.742.375,4.541a11.127,11.127,0,0,0-2.445,2.471c-1.589,2.166-2.812,1.764-4.934.288-9.326-6.5-19.281-7.065-29.018-1.188-9.833,5.938-13.745,15.238-12.191,26.433,1.485,10.7,7.693,17.98,18.094,21.272,14.278,4.523,30.738-3.685,31.271-18.574Z" transform="translate(0 12.773)" fill="#4385f4"/>
      <path id="Sustracci贸n_30" data-name="Sustracci贸n 30" d="M23.395,46.821h-.031A23.62,23.62,0,0,1,7.252,40.547,22.614,22.614,0,0,1,.045,25.118a26.92,26.92,0,0,1,1.088-9.393A22.237,22.237,0,0,1,5.207,8.09a21.432,21.432,0,0,1,6.652-5.379A24.746,24.746,0,0,1,20.674.091,14.879,14.879,0,0,1,22.332,0,21.931,21.931,0,0,1,35.381,4.906c4.006,3.126,6.76,7.223,7.563,11.237.381,1.946-.734,2.2-1.719,2.433l-.035.008a4.6,4.6,0,0,0-.729.212c-9.338,3.976-17.129,7.266-25.307,10.4-1.494.574-2.23,1.125-2.391,1.787s.23,1.426,1.332,2.65a11.461,11.461,0,0,0,4.154,2.916,12.964,12.964,0,0,0,4.994.973,14.179,14.179,0,0,0,9.621-3.786,4.953,4.953,0,0,0,.65-.843l0,0c.428-.646.873-1.315,1.613-1.315a1.992,1.992,0,0,1,1.059.374,48.936,48.936,0,0,1,6.268,4.595.417.417,0,0,1,.152.307c.016.37-.432.843-.828,1.259-.168.178-.328.348-.449.5a20.89,20.89,0,0,1-7.809,5.99A24.51,24.51,0,0,1,23.395,46.821ZM22.8,9.061a11.361,11.361,0,0,0-4.42.978,12.548,12.548,0,0,0-6.006,5A10.85,10.85,0,0,0,11.043,22.4c5.881-2.42,12.115-4.987,20.209-8.319l0,.008v-.01h0C28.842,10.749,26,9.061,22.8,9.061Z" transform="translate(160.608 126.419)" fill="#ea4235"/>
      <path id="Sustracci贸n_28" data-name="Sustracci贸n 28" d="M23.445,46.879H23.43A23.437,23.437,0,0,1,6.721,40.15,23.243,23.243,0,0,1,0,23.492l.008-.011A23.523,23.523,0,0,1,6.758,6.766,23.2,23.2,0,0,1,23.363,0c.043,0,.088,0,.135,0a23.873,23.873,0,0,1,9.229,1.881A23.4,23.4,0,0,1,47.1,23.552,23.1,23.1,0,0,1,40.23,40.114,23.708,23.708,0,0,1,23.445,46.879Zm.061-37.548a12.628,12.628,0,0,0-9.4,4.023,14.913,14.913,0,0,0-3.711,10.188l0,0a14.677,14.677,0,0,0,3.7,9.987,12.7,12.7,0,0,0,9.246,4.124h.209a12.661,12.661,0,0,0,9.006-3.793,14.067,14.067,0,0,0,3.061-4.637,15.18,15.18,0,0,0,1.113-5.8A14.608,14.608,0,0,0,32.9,13.479a12.733,12.733,0,0,0-9.268-4.147Z" transform="translate(212.017 126.431)" fill="#f8bb04"/>
      <path id="Trazado_8928" data-name="Trazado 8928" d="M.073,88C.073,61.986.2,35.989,0,9.97-.058,2.146-.367.3,3.867.246c2.708-.019,1.795.014,3.9,0,3.185-.1,2.707,1.922,2.7,7.108q-.079,80.807,0,161.636c0,5.387-.795,6.84-2.786,7.2-7.606,1.319-7.606,1.5-7.606-17.972V87.982Z" transform="translate(259.12 178.206) rotate(90)" fill="#34a853"/>
    </g>
  </g>
</svg>
