<svg xmlns="http://www.w3.org/2000/svg" xmlns:xlink="http://www.w3.org/1999/xlink" width="50.105" height="51" viewBox="0 0 50.105 51">
  <defs>
    <clipPath id="clip-path">
      <path id="Trazado_7342" data-name="Trazado 7342" d="M745.071,491.607H694.966V455.817l25.052-15.21,25.053,15.21Z" fill="none"/>
    </clipPath>
    <linearGradient id="linear-gradient" x1="0.5" y1="1" x2="0.5" gradientUnits="objectBoundingBox">
      <stop offset="0" stop-color="#ebeeff"/>
      <stop offset="0.344" stop-color="#e2e7ff"/>
      <stop offset="0.905" stop-color="#c9d7ff"/>
      <stop offset="1" stop-color="#c5d4ff"/>
    </linearGradient>
  </defs>
  <g id="Grupo_3184" data-name="Grupo 3184" transform="translate(-694.966 -440.607)">
    <g id="Grupo_3183" data-name="Grupo 3183">
      <g id="Grupo_3182" data-name="Grupo 3182" clip-path="url(#clip-path)">
        <path id="Trazado_7339" data-name="Trazado 7339" d="M745.071,488.028a3.589,3.589,0,0,1-3.578,3.579H698.545a3.589,3.589,0,0,1-3.579-3.579V459.4a7.079,7.079,0,0,1,3.06-5.436l18.933-11.5a6.489,6.489,0,0,1,6.119,0l18.934,11.5a7.078,7.078,0,0,1,3.059,5.436Z" fill="#2622ac"/>
        <path id="Trazado_7340" data-name="Trazado 7340" d="M740.634,462.367l-18.825,11.681a4.414,4.414,0,0,1-3.581,0L699.4,462.367a4.21,4.21,0,0,1-1.753-3.008h44.737A4.21,4.21,0,0,1,740.634,462.367Z" fill="url(#linear-gradient)"/>
        <path id="Trazado_7341" data-name="Trazado 7341" d="M740.634,456.388l-18.825-11.681a4.414,4.414,0,0,0-3.581,0L699.4,456.388a4.212,4.212,0,0,0-1.753,3.008h44.737A4.21,4.21,0,0,0,740.634,456.388Z" fill="#fff"/>
      </g>
    </g>
  </g>
</svg>
